<svg width="23" height="24" viewBox="0 0 23 24" fill="none" xmlns="http://www.w3.org/2000/svg">
<g clip-path="url(#clip0_1_609)">
<path fill-rule="evenodd" clip-rule="evenodd" d="M13.1448 2.14286C13.1448 1.70714 12.9717 1.28928 12.6636 0.981182C12.3555 0.673086 11.9377 0.5 11.502 0.5C11.0662 0.5 10.6484 0.673086 10.3403 0.981182C10.0322 1.28928 9.8591 1.70714 9.8591 2.14286V10.3571H1.64481C1.2091 10.3571 0.79123 10.5302 0.483135 10.8383C0.175039 11.1464 0.00195313 11.5643 0.00195312 12C0.00195313 12.4357 0.175039 12.8536 0.483135 13.1617C0.79123 13.4698 1.2091 13.6429 1.64481 13.6429H9.8591V21.8571C9.8591 22.2929 10.0322 22.7107 10.3403 23.0188C10.6484 23.3269 11.0662 23.5 11.502 23.5C11.9377 23.5 12.3555 23.3269 12.6636 23.0188C12.9717 22.7107 13.1448 22.2929 13.1448 21.8571V13.6429H21.3591C21.7948 13.6429 22.2127 13.4698 22.5208 13.1617C22.8289 12.8536 23.002 12.4357 23.002 12C23.002 11.5643 22.8289 11.1464 22.5208 10.8383C22.2127 10.5302 21.7948 10.3571 21.3591 10.3571H13.1448V2.14286Z" fill="black" fill-opacity="0.6"/>
</g>
<defs>
<clipPath id="clip0_1_609">
<rect width="23" height="23" fill="white" transform="translate(0.00195312 0.5)"/>
</clipPath>
</defs>
</svg>
