<svg width="37" height="38" viewBox="0 0 37 38" fill="none" xmlns="http://www.w3.org/2000/svg">
<path d="M11.1837 31.7715L14.6355 25.793H21.5389L24.9907 31.7715L21.5389 37.7501H14.6355L11.1837 31.7715Z" fill="#17A700"/>
<path d="M22.2294 25.421L25.6811 19.4424H32.5846L36.0363 25.421L32.5846 31.3995H25.6811L22.2294 25.421Z" fill="#17A700"/>
<path d="M22.2294 12.7178L25.6811 6.73926H32.5846L36.0363 12.7178L32.5846 18.6964H25.6811L22.2294 12.7178Z" fill="#17A700"/>
<path d="M11.1837 6.22858L14.6355 0.25H21.5389L24.9907 6.22858L21.5389 12.2072H14.6355L11.1837 6.22858Z" fill="#17A700"/>
<path d="M9.15527e-05 12.8555L3.45183 6.87695H10.3553L13.807 12.8555L10.3553 18.8341H3.45183L9.15527e-05 12.8555Z" fill="#17A700"/>
<path d="M0.138336 25.6964L3.59007 19.7178H10.4935L13.9453 25.6964L10.4935 31.6749H3.59007L0.138336 25.6964Z" fill="#17A700"/>
<path d="M11.1837 19.0694L14.6355 13.0908H21.5389L24.9907 19.0694L21.5389 25.048H14.6355L11.1837 19.0694Z" fill="#17A700"/>
</svg>
