<svg width="30" height="39" viewBox="0 0 30 39" fill="none" xmlns="http://www.w3.org/2000/svg">
<path d="M28.9599 14.3411C28.9599 13.8504 29.1935 13.2815 29.4416 12.6797C29.8166 11.7713 30.2033 10.8317 29.8757 9.90729C29.5356 8.94463 28.5558 8.35885 27.6914 7.8424C27.1235 7.50285 26.5867 7.18285 26.295 6.81396C25.9965 6.43796 25.8269 5.86551 25.6466 5.2584C25.3782 4.35174 25.0739 3.32418 24.193 2.73574C23.3208 2.1544 22.2161 2.2024 21.1491 2.24774C20.4591 2.27796 19.8069 2.3064 19.3146 2.15885C18.8563 2.02285 18.3669 1.65929 17.8474 1.27529C17.0392 0.676181 16.1234 -0.00292969 15.0003 -0.00292969C13.8761 -0.00292969 12.9603 0.676181 12.1512 1.27529C11.6327 1.66018 11.1433 2.02285 10.6849 2.15974C10.1926 2.3064 9.54141 2.27796 8.85045 2.24863C7.78251 2.2024 6.67873 2.1544 5.80655 2.73663C4.92565 3.32329 4.62136 4.35174 4.35292 5.25929C4.17267 5.86551 4.00405 6.43796 3.7046 6.81485C3.41291 7.18285 2.87603 7.50285 2.30912 7.8424C1.44372 8.35885 0.463978 8.94463 0.123828 9.90729C-0.203723 10.8317 0.182943 11.7713 0.557979 12.6806C0.805096 13.2815 1.03961 13.8504 1.03961 14.3411C1.03961 14.8317 0.805096 15.4006 0.557979 16.0024C0.182943 16.9108 -0.203723 17.8504 0.122859 18.7748C0.463978 19.7375 1.44372 20.3233 2.30815 20.8397C2.87603 21.1793 3.41291 21.4993 3.7046 21.8682C4.00308 22.2442 4.17267 22.8166 4.35292 23.4237C4.62136 24.3304 4.92565 25.358 5.80655 25.9455C6.67873 26.5277 7.78348 26.4797 8.85045 26.4344C9.54044 26.4042 10.1917 26.3757 10.6849 26.5233C11.1433 26.6593 11.6327 27.022 12.1521 27.4068C12.5427 27.6966 12.9584 28.0042 13.411 28.2451L10.7305 37.0629L8.25737 34.534C8.16837 34.4432 8.05299 34.3776 7.92477 34.3448C7.79655 34.3121 7.6608 34.3135 7.53346 34.3491L3.99242 35.3393L6.71168 25.9793C6.76141 25.8154 6.73814 25.6402 6.647 25.4921C6.55586 25.344 6.40431 25.2351 6.22568 25.1895C6.04705 25.1439 5.85598 25.1652 5.69451 25.2488C5.53303 25.3324 5.41438 25.4714 5.36465 25.6353L2.30427 36.1206C2.27045 36.2314 2.26974 36.3484 2.30222 36.4595C2.3347 36.5706 2.39916 36.6716 2.48885 36.752C2.57855 36.8323 2.69016 36.8891 2.812 36.9162C2.93383 36.9434 3.06139 36.94 3.18129 36.9064L7.51602 35.6948L10.5425 38.7882C10.626 38.8739 10.7332 38.9374 10.8527 38.9721C10.9723 39.0067 11.0998 39.0113 11.2219 38.9852C11.3439 38.9591 11.4561 38.9033 11.5467 38.8238C11.6372 38.7443 11.7027 38.6438 11.7364 38.5331L14.7328 28.6708C14.821 28.6788 14.9101 28.6851 15.0003 28.6851C15.0914 28.6851 15.1795 28.6788 15.2677 28.6708L18.2661 38.5331C18.2996 38.6439 18.3651 38.7444 18.4555 38.8241C18.546 38.9037 18.6582 38.9596 18.7803 38.9857C18.9024 39.0119 19.03 39.0075 19.1495 38.9729C19.2691 38.9383 19.3764 38.8748 19.46 38.7891L22.4855 35.6948L26.8202 36.9064C26.9401 36.94 27.0677 36.9434 27.1895 36.9162C27.3113 36.8891 27.423 36.8323 27.5126 36.752C27.6023 36.6716 27.6668 36.5706 27.6993 36.4595C27.7318 36.3484 27.7311 36.2314 27.6972 36.1206L24.5235 25.6797C25.1563 25.078 25.415 24.206 25.6476 23.4228C25.8269 22.8166 25.9965 22.2433 26.295 21.8673C26.5876 21.4993 27.1235 21.1784 27.6914 20.8397C28.5558 20.3233 29.5356 19.7375 29.8767 18.774C30.2043 17.8495 29.8166 16.91 29.4426 16.0015C29.1945 15.3997 28.9609 14.8317 28.9609 14.3411H28.9599ZM26.0062 35.3393L22.4642 34.3491C22.3368 34.3134 22.2011 34.3119 22.0728 34.3447C21.9446 34.3774 21.8292 34.4431 21.7403 34.534L19.2691 37.062L16.5876 28.2451C17.0402 28.0042 17.4559 27.6966 17.8465 27.4068C18.3649 27.022 18.8553 26.6584 19.3137 26.5224C19.8069 26.3757 20.4572 26.4033 21.1481 26.4335C21.8653 26.4646 22.6008 26.4957 23.2704 26.3357L26.0062 35.3393ZM28.5452 18.3793C28.3572 18.9108 27.6623 19.326 26.9268 19.766C26.2775 20.1535 25.6069 20.5544 25.1631 21.1135C24.7134 21.6797 24.5012 22.3953 24.2967 23.0868C24.068 23.8584 23.8529 24.5864 23.3693 24.9091C22.8944 25.2255 22.0785 25.19 21.214 25.1526C20.4291 25.1188 19.617 25.0842 18.8824 25.3028C18.1779 25.5126 17.5625 25.9686 16.9675 26.4095C16.2795 26.9206 15.6282 27.4024 14.9983 27.4024C14.3684 27.4024 13.7191 26.9206 13.0301 26.4095C12.4351 25.9686 11.8188 25.5117 11.1152 25.3028C10.652 25.1651 10.1577 25.1277 9.65867 25.1277C9.36794 25.1277 9.07334 25.1402 8.78358 25.1526C7.91916 25.19 7.10222 25.2255 6.62833 24.9091C6.14476 24.5864 5.92962 23.8584 5.70092 23.0868C5.49644 22.3953 5.28421 21.6797 4.83456 21.1135C4.39071 20.5535 3.72011 20.1535 3.07082 19.7651C2.33431 19.326 1.64045 18.9108 1.45245 18.3784C1.27607 17.8824 1.56195 17.1891 1.86431 16.4548C2.14534 15.7722 2.43607 15.0664 2.43607 14.3411C2.43607 13.6157 2.14534 12.91 1.86431 12.2273C1.56195 11.4931 1.27607 10.7997 1.45245 10.3037C1.64045 9.77129 2.33528 9.35618 3.07082 8.91707C3.72011 8.52951 4.39071 8.12863 4.83456 7.56951C5.28421 7.0024 5.49644 6.28685 5.70092 5.59618C5.92962 4.82463 6.14476 4.09574 6.62833 3.77396C7.10319 3.45663 7.91916 3.49218 8.78358 3.52951C9.56854 3.56329 10.3806 3.59885 11.1152 3.37929C11.8197 3.16951 12.4351 2.71351 13.0301 2.27263C13.7182 1.76151 14.3694 1.27974 14.9993 1.27974C15.6292 1.27974 16.2785 1.76151 16.9675 2.27263C17.5625 2.71351 18.1779 3.1704 18.8824 3.37929C19.618 3.59796 20.4291 3.56329 21.214 3.52951C22.0785 3.49218 22.8954 3.45663 23.3693 3.77307C23.8519 4.09574 24.068 4.82374 24.2967 5.59529C24.5012 6.28685 24.7134 7.0024 25.1631 7.56863C25.6069 8.12863 26.2775 8.52863 26.9268 8.91707C27.6623 9.35618 28.3572 9.77129 28.5452 10.3037C28.7216 10.7997 28.4357 11.4931 28.1333 12.2264C27.8523 12.91 27.5616 13.6157 27.5616 14.3411C27.5616 15.0664 27.8523 15.7722 28.1333 16.4548C28.4357 17.1891 28.7216 17.8833 28.5452 18.3793ZM11.498 12.4148C11.59 12.4156 11.678 12.4496 11.7428 12.5095C11.8076 12.5694 11.844 12.6504 11.844 12.7348V18.494C11.844 18.6708 11.6889 18.814 11.498 18.814H10.1132C10.0211 18.8135 9.93293 18.7795 9.86807 18.7196C9.80322 18.6596 9.76694 18.5784 9.7672 18.494V12.734C9.7672 12.558 9.92226 12.414 10.1132 12.414L11.498 12.4148ZM15.7552 9.46729C16.0101 9.40863 16.3269 9.46463 16.5527 9.57574C17.2485 9.91707 17.4114 10.878 17.1604 11.5082L16.797 12.4193C16.797 12.4193 19.398 12.4104 19.4542 12.4193C20.3738 12.5615 20.6365 13.7091 19.8496 14.1722C19.9772 14.3847 20.0126 14.6335 19.9486 14.8689C19.8846 15.1043 19.726 15.3089 19.5046 15.4415C19.6319 15.6539 19.6671 15.9026 19.6032 16.1378C19.5392 16.373 19.3808 16.5773 19.1596 16.71C19.5424 17.3322 19.0336 18.1286 18.2583 18.1286H12.5068V13.0531C12.5068 13.0531 14.1707 11.6682 14.7066 11.1873C15.0138 10.9117 15.2125 10.5455 15.292 10.1597C15.323 10.0068 15.3143 9.84685 15.4024 9.70996C15.48 9.58952 15.6075 9.50224 15.7552 9.46729Z" fill="#17A700"/>
</svg>
